<svg width="52" height="31" viewBox="0 0 52 31" fill="none" xmlns="http://www.w3.org/2000/svg">
<path fill-rule="evenodd" clip-rule="evenodd" d="M8.86295 19.3825C8.65825 19.168 8.39875 19.094 8.12595 19.1081C7.85145 19.1221 7.59265 19.2289 7.40195 19.469C7.18585 19.6732 7.10665 19.9606 7.09215 20.2304C7.10555 20.5028 7.21235 20.7628 7.42225 20.9486C21.465 32.6596 20.0107 30.9076 8.86295 19.3825ZM7.45195 22.0388C7.24155 21.8533 6.95255 21.7737 6.70775 21.7934C6.43425 21.807 6.17025 21.9445 5.95415 22.1486C5.76755 22.3601 5.66075 22.6429 5.67385 22.9164C5.66505 23.156 5.76595 23.4434 5.97695 23.63C18.1795 32.6492 18.4239 32.8106 7.45195 22.0388ZM41.7077 28.682C51.9254 32.3018 53.0974 17.997 48.4864 12.7882C49.2927 10.5122 48.3884 7.10382 45.9864 4.16635C42.878 0.416887 38.4853 -1.07578 36.1754 0.826221C33.8301 2.75329 34.4733 7.35382 37.5514 11.0986C39.8545 13.8981 42.8832 15.4325 45.2364 15.2565C46.1739 15.7757 46.7847 16.27 48.0191 17.7142C55.4254 27.4633 43.9483 28.6352 24.2025 15.1528C1.29785 -0.523776 -2.35734 9.89609 1.15035 17.7226C3.29875 19.8314 1.60935 23.7705 3.75255 25.7273C6.25875 28.0492 9.79305 30.8757 13.2894 30.53C10.3587 28.7705 7.89305 26.5762 5.23215 24.1081C5.12635 24.03 5.05195 23.9268 5.01295 23.7992C4.94515 23.669 4.88215 23.5065 4.87695 23.3538L4.86185 23.2617C4.82225 23.1352 4.84215 23.018 4.86655 22.8705C4.86395 22.7194 4.91595 22.5778 4.99465 22.471L7.34415 18.0122L7.34935 17.9825L7.47695 17.7633L7.71295 17.6216L8.03425 17.6752C8.15195 17.695 8.25415 17.8028 8.41505 17.921L8.41025 17.9502L18.351 26.9804C18.4822 27.0934 18.6478 27.1804 18.7941 27.2054C18.8593 24.321 12.628 19.0524 10.0119 16.682L8.33695 15.1637C6.37385 13.5674 4.66705 16.8981 2.48015 15.0216C-2.15427 11.3773 3.94265 8.48409 14.2435 11.7866C27.0665 15.8748 32.9717 25.583 41.7077 28.682Z" fill="#80D489"/>
</svg>
