<svg width="87" height="60" viewBox="0 0 87 60" fill="none" xmlns="http://www.w3.org/2000/svg">
<path d="M55.5428 32.1257C44.185 32.1257 34.9839 30.9019 34.9839 29.3967C34.9839 27.8825 44.185 26.6612 55.5428 26.6612C66.8917 26.6612 76.0948 27.8825 76.0948 29.3967C76.0948 30.9019 66.8917 32.1257 55.5428 32.1257Z" fill="url(#paint0_radial_601_464)"/>
<path fill-rule="evenodd" clip-rule="evenodd" d="M19.7682 19.3825C19.5635 19.168 19.304 19.094 19.0312 19.1081C18.7567 19.1221 18.4979 19.2289 18.3072 19.469C18.0911 19.6732 18.0119 19.9606 17.9974 20.2304C18.0108 20.5028 18.1176 20.7628 18.3275 20.9486C32.3703 32.6596 30.916 30.9076 19.7682 19.3825ZM18.3572 22.0388C18.1468 21.8533 17.8578 21.7737 17.613 21.7934C17.3395 21.807 17.0755 21.9445 16.8594 22.1486C16.6728 22.3601 16.566 22.6429 16.5791 22.9164C16.5703 23.156 16.6712 23.4434 16.8822 23.63C29.0848 32.6492 29.3291 32.8106 18.3572 22.0388ZM52.613 28.682C62.8307 32.3018 64.0026 17.997 59.3916 12.7882C60.1979 10.5122 59.2936 7.10382 56.8916 4.16635C53.7832 0.416888 49.3906 -1.07578 47.0807 0.826222C44.7354 2.75329 45.3786 7.35382 48.4567 11.0986C50.7598 13.8981 53.7884 15.4325 56.1416 15.2565C57.0791 15.7757 57.69 16.27 58.9244 17.7142C66.3307 27.4633 54.8536 28.6352 35.1078 15.1528C12.2031 -0.523775 8.54791 9.89609 12.0556 17.7226C14.204 19.8314 12.5146 23.7705 14.6578 25.7273C17.164 28.0492 20.6983 30.8757 24.1947 30.53C21.264 28.7705 18.7983 26.5762 16.1374 24.1081C16.0316 24.03 15.9572 23.9268 15.9182 23.7992C15.8504 23.669 15.7874 23.5065 15.7822 23.3538L15.7671 23.2617C15.7275 23.1352 15.7474 23.018 15.7718 22.8705C15.7692 22.7194 15.8212 22.5778 15.8999 22.471L18.2494 18.0122L18.2546 17.9825L18.3822 17.7633L18.6182 17.6216L18.9395 17.6752C19.0572 17.695 19.1594 17.8028 19.3203 17.921L19.3155 17.9502L29.2562 26.9804C29.3874 27.0934 29.5531 27.1804 29.6994 27.2054C29.7646 24.321 23.5332 19.0524 20.9171 16.682L19.2422 15.1637C17.2791 13.5674 15.5723 16.8981 13.3854 15.0216C8.75098 11.3773 14.8479 8.48409 25.1488 11.7866C37.9718 15.8748 43.877 25.583 52.613 28.682Z" fill="#80D489"/>
<path d="M6.864 41.8617V42.1497H1.68V47.3497H6.384V47.6377H1.68V53.1257H1.36V41.8617H6.864ZM12.684 53.2377C11.884 53.2377 11.164 53.0617 10.524 52.7097C9.884 52.3471 9.37733 51.8351 9.004 51.1737C8.64133 50.5017 8.46 49.7124 8.46 48.8057C8.46 47.8991 8.64133 47.1151 9.004 46.4537C9.37733 45.7817 9.884 45.2697 10.524 44.9177C11.164 44.5551 11.884 44.3737 12.684 44.3737C13.484 44.3737 14.204 44.5551 14.844 44.9177C15.484 45.2697 15.9853 45.7817 16.348 46.4537C16.7107 47.1151 16.892 47.8991 16.892 48.8057C16.892 49.7124 16.7107 50.5017 16.348 51.1737C15.9853 51.8351 15.484 52.3471 14.844 52.7097C14.204 53.0617 13.484 53.2377 12.684 53.2377ZM12.684 52.9497C13.3773 52.9497 14.0173 52.8004 14.604 52.5017C15.1907 52.1924 15.6653 51.7284 16.028 51.1097C16.3907 50.4911 16.572 49.7231 16.572 48.8057C16.572 47.8884 16.3907 47.1204 16.028 46.5017C15.6653 45.8831 15.1907 45.4244 14.604 45.1257C14.0173 44.8164 13.3773 44.6617 12.684 44.6617C11.9907 44.6617 11.3453 44.8164 10.748 45.1257C10.1613 45.4244 9.68667 45.8884 9.324 46.5177C8.96133 47.1364 8.78 47.8991 8.78 48.8057C8.78 49.7124 8.96133 50.4804 9.324 51.1097C9.68667 51.7284 10.1613 52.1924 10.748 52.5017C11.3453 52.8004 11.9907 52.9497 12.684 52.9497ZM19.5394 46.5817C19.8807 45.0564 21.0167 44.2937 22.9474 44.2937V44.6457H22.8034C21.8967 44.6457 21.1234 44.9124 20.4834 45.4457C19.854 45.9684 19.5394 46.8164 19.5394 47.9897V53.1257H19.2194V44.4857H19.5394V46.5817ZM28.9296 53.1257L24.9456 49.0777V53.1257H24.6256V41.2857H24.9456V48.4377L28.8496 44.4857H29.3136L25.0576 48.7737L29.3776 53.1257H28.9296ZM30.5381 47.5097C30.5381 46.3897 30.7621 45.3977 31.2101 44.5337C31.6581 43.6591 32.2821 42.9764 33.0821 42.4857C33.8821 41.9951 34.7835 41.7497 35.7861 41.7497C37.0981 41.7497 38.1808 42.0537 39.0341 42.6617C39.8981 43.2697 40.5275 44.1124 40.9221 45.1897H40.6021C40.2608 44.2404 39.6795 43.4777 38.8581 42.9017C38.0368 42.3257 37.0128 42.0377 35.7861 42.0377C34.8688 42.0377 34.0368 42.2617 33.2901 42.7097C32.5435 43.1471 31.9515 43.7817 31.5141 44.6137C31.0875 45.4351 30.8741 46.4004 30.8741 47.5097C30.8741 48.6084 31.0875 49.5684 31.5141 50.3897C31.9515 51.2111 32.5435 51.8457 33.2901 52.2937C34.0475 52.7311 34.8795 52.9497 35.7861 52.9497C37.0128 52.9497 38.0368 52.6671 38.8581 52.1017C39.6795 51.5257 40.2608 50.7631 40.6021 49.8137H40.9221C40.5275 50.8911 39.8981 51.7337 39.0341 52.3417C38.1808 52.9391 37.0981 53.2377 35.7861 53.2377C34.7835 53.2377 33.8821 52.9977 33.0821 52.5177C32.2821 52.0271 31.6581 51.3497 31.2101 50.4857C30.7621 49.6111 30.5381 48.6191 30.5381 47.5097ZM42.835 48.8057C42.835 47.8991 43.011 47.1151 43.363 46.4537C43.715 45.7817 44.211 45.2697 44.851 44.9177C45.491 44.5551 46.2217 44.3737 47.043 44.3737C48.035 44.3737 48.8723 44.6351 49.555 45.1577C50.2483 45.6697 50.7123 46.3257 50.947 47.1257V44.4857H51.251V53.1257H50.947V50.4857C50.7123 51.2857 50.2483 51.9471 49.555 52.4697C48.8723 52.9817 48.035 53.2377 47.043 53.2377C46.2217 53.2377 45.491 53.0617 44.851 52.7097C44.211 52.3471 43.715 51.8351 43.363 51.1737C43.011 50.5017 42.835 49.7124 42.835 48.8057ZM50.947 48.8057C50.947 47.9844 50.7763 47.2644 50.435 46.6457C50.1043 46.0164 49.6403 45.5311 49.043 45.1897C48.4563 44.8377 47.7897 44.6617 47.043 44.6617C46.2537 44.6617 45.5657 44.8271 44.979 45.1577C44.403 45.4884 43.955 45.9684 43.635 46.5977C43.315 47.2164 43.155 47.9524 43.155 48.8057C43.155 49.6591 43.315 50.4004 43.635 51.0297C43.955 51.6484 44.403 52.1231 44.979 52.4537C45.5657 52.7844 46.2537 52.9497 47.043 52.9497C47.7897 52.9497 48.4563 52.7791 49.043 52.4377C49.6403 52.0857 50.1043 51.6004 50.435 50.9817C50.7763 50.3524 50.947 49.6271 50.947 48.8057ZM56.7534 53.2377C55.804 53.2377 55.036 53.0457 54.4494 52.6617C53.8734 52.2777 53.5374 51.6964 53.4414 50.9177H53.7614C53.8254 51.5577 54.108 52.0591 54.6094 52.4217C55.1214 52.7737 55.8414 52.9497 56.7694 52.9497C57.2387 52.9497 57.6494 52.8591 58.0014 52.6777C58.364 52.4964 58.6414 52.2564 58.8334 51.9577C59.0254 51.6484 59.1214 51.3177 59.1214 50.9657C59.1214 50.5817 59.0094 50.2724 58.7854 50.0377C58.572 49.7924 58.3 49.6057 57.9694 49.4777C57.6494 49.3497 57.2067 49.2111 56.6414 49.0617C56.012 48.9017 55.5 48.7417 55.1054 48.5817C54.7214 48.4217 54.3907 48.1764 54.1134 47.8457C53.8467 47.5151 53.7134 47.0777 53.7134 46.5337C53.7134 46.1497 53.8307 45.7924 54.0654 45.4617C54.3 45.1311 54.62 44.8697 55.0254 44.6777C55.4414 44.4751 55.9054 44.3737 56.4174 44.3737C57.292 44.3737 57.996 44.5924 58.5294 45.0297C59.0627 45.4671 59.3507 46.0751 59.3934 46.8537H59.0734C59.0414 46.2137 58.796 45.6911 58.3374 45.2857C57.8894 44.8697 57.2494 44.6617 56.4174 44.6617C55.9694 44.6617 55.564 44.7471 55.2014 44.9177C54.8387 45.0884 54.5507 45.3177 54.3374 45.6057C54.1347 45.8937 54.0334 46.2031 54.0334 46.5337C54.0334 47.0031 54.156 47.3817 54.4014 47.6697C54.6467 47.9577 54.9454 48.1711 55.2974 48.3097C55.66 48.4484 56.14 48.5977 56.7374 48.7577C57.3454 48.9284 57.82 49.0831 58.1614 49.2217C58.5134 49.3604 58.812 49.5737 59.0574 49.8617C59.3027 50.1391 59.4254 50.5071 59.4254 50.9657C59.4254 51.3924 59.308 51.7817 59.0734 52.1337C58.8387 52.4751 58.5187 52.7471 58.1134 52.9497C57.708 53.1417 57.2547 53.2377 56.7534 53.2377ZM62.3918 44.8057V50.8537C62.3918 51.3764 62.4504 51.7764 62.5678 52.0537C62.6851 52.3311 62.8718 52.5284 63.1278 52.6457C63.3838 52.7524 63.7411 52.8057 64.1998 52.8057H65.1118V53.1257H64.1678C63.4211 53.1257 62.8824 52.9551 62.5518 52.6137C62.2318 52.2724 62.0718 51.6857 62.0718 50.8537V44.8057H60.6638V44.4857H62.0718V42.2777H62.3918V44.4857H65.1118V44.8057H62.3918ZM70.87 52.9497C71.8407 52.9497 72.6567 52.7044 73.318 52.2137C73.9793 51.7231 74.3793 51.0511 74.518 50.1977H74.838C74.6887 51.1044 74.262 51.8404 73.558 52.4057C72.8647 52.9604 71.9687 53.2377 70.87 53.2377C70.07 53.2377 69.3553 53.0617 68.726 52.7097C68.0967 52.3577 67.6007 51.8457 67.238 51.1737C66.886 50.5017 66.71 49.7124 66.71 48.8057C66.71 47.8991 66.886 47.1097 67.238 46.4377C67.6007 45.7657 68.0967 45.2537 68.726 44.9017C69.3553 44.5497 70.07 44.3737 70.87 44.3737C71.7127 44.3737 72.4327 44.5551 73.03 44.9177C73.6273 45.2697 74.0753 45.7284 74.374 46.2937C74.6833 46.8591 74.838 47.4564 74.838 48.0857C74.838 48.4697 74.8327 48.7577 74.822 48.9497H67.03C67.0407 49.8351 67.222 50.5764 67.574 51.1737C67.9367 51.7711 68.406 52.2191 68.982 52.5177C69.558 52.8057 70.1873 52.9497 70.87 52.9497ZM70.87 44.6617C70.1873 44.6617 69.558 44.8111 68.982 45.1097C68.406 45.3977 67.9367 45.8404 67.574 46.4377C67.222 47.0351 67.0407 47.7764 67.03 48.6617H74.55C74.6033 47.7764 74.4593 47.0351 74.118 46.4377C73.7873 45.8404 73.3287 45.3977 72.742 45.1097C72.166 44.8111 71.542 44.6617 70.87 44.6617ZM76.7569 48.8057C76.7569 47.8991 76.9329 47.1151 77.2849 46.4537C77.6369 45.7817 78.1329 45.2697 78.7729 44.9177C79.4129 44.5551 80.1435 44.3737 80.9649 44.3737C81.9569 44.3737 82.7942 44.6351 83.4769 45.1577C84.1702 45.6697 84.6342 46.3257 84.8689 47.1257V41.2857H85.1729V53.1257H84.8689V50.4697C84.6342 51.2804 84.1702 51.9471 83.4769 52.4697C82.7942 52.9817 81.9569 53.2377 80.9649 53.2377C80.1435 53.2377 79.4129 53.0617 78.7729 52.7097C78.1329 52.3471 77.6369 51.8351 77.2849 51.1737C76.9329 50.5017 76.7569 49.7124 76.7569 48.8057ZM84.8689 48.8057C84.8689 47.9844 84.6982 47.2644 84.3569 46.6457C84.0262 46.0164 83.5622 45.5311 82.9649 45.1897C82.3782 44.8377 81.7115 44.6617 80.9649 44.6617C80.1755 44.6617 79.4875 44.8271 78.9009 45.1577C78.3249 45.4884 77.8769 45.9684 77.5569 46.5977C77.2369 47.2164 77.0769 47.9524 77.0769 48.8057C77.0769 49.6591 77.2369 50.4004 77.5569 51.0297C77.8769 51.6484 78.3249 52.1231 78.9009 52.4537C79.4875 52.7844 80.1755 52.9497 80.9649 52.9497C81.7115 52.9497 82.3782 52.7791 82.9649 52.4377C83.5622 52.0857 84.0262 51.6004 84.3569 50.9817C84.6982 50.3524 84.8689 49.6271 84.8689 48.8057Z" fill="#80D489"/>
<defs>
<radialGradient id="paint0_radial_601_464" cx="0" cy="0" r="1" gradientUnits="userSpaceOnUse" gradientTransform="translate(55.5402 29.3943) scale(20.5505 2.73303)">
<stop stop-color="#5A5B5D"/>
<stop offset="0.972573" stop-color="#5A5B5D" stop-opacity="0.1"/>
<stop offset="1" stop-color="#5A5B5D" stop-opacity="0"/>
</radialGradient>
</defs>
</svg>
