<svg width="114" height="60" viewBox="0 0 114 60" fill="none" xmlns="http://www.w3.org/2000/svg">
<path d="M21.3709 48.0511C21.4236 47.1331 21.4763 45.6218 21.4763 45.1369C21.4763 44.651 21.5051 44.6242 21.3709 43.1148C21.2607 41.6303 21.0738 41.0639 20.9636 40.4698C20.8841 39.8766 20.6953 39.176 20.3982 38.2857C20.1289 37.3945 19.8864 36.9096 19.5069 36.0461C19.1303 35.1836 18.4288 33.9962 17.7819 32.8089C17.1619 31.6493 16.5677 30.2741 16.3243 28.9247C16.056 27.3876 16.0819 25.607 16.1374 24.6084C16.1911 23.6117 16.3502 21.075 16.4604 19.7525C10.4708 22.1004 6.34424 27.6042 6.34424 34.1036C6.34424 42.1699 12.8446 48.8332 21.208 49.6429C21.2607 49.6957 21.3153 48.9683 21.3699 48.0521M19.6449 11.3125L19.5376 27.1269M26.6178 11.3125L26.5104 27.1269M23.255 10.3542L23.1486 27.1269M24.6312 48.0521C24.5754 47.0812 24.5389 46.1092 24.5219 45.1369C24.5219 44.651 24.496 44.6242 24.6312 43.1148C24.7385 41.6303 24.9273 41.0639 25.0356 40.4698C25.117 39.8766 25.3058 39.176 25.601 38.2857C25.8712 37.3945 26.1147 36.9096 26.4922 36.0461C26.8698 35.1836 27.5713 33.9962 28.2182 32.8089C28.8382 31.6493 29.4334 30.2741 29.6758 28.9247C29.9442 27.3876 29.9192 25.607 29.8637 24.6084C29.809 23.6117 29.648 21.075 29.5407 19.7525C35.5284 22.1004 39.6559 27.6042 39.6559 34.1036C39.6559 42.1699 33.1546 48.8332 24.7922 49.6429C24.7385 49.6957 24.6858 48.9683 24.6312 48.0521Z" stroke="#FF6432" stroke-width="2" stroke-linecap="round" stroke-linejoin="round"/>
<path d="M57.226 12.398C56.746 12.398 56.08 12.32 55.228 12.164C54.028 13.076 52.918 13.532 51.898 13.532C51.862 13.532 51.826 13.532 51.79 13.532C51.058 13.52 50.482 13.328 50.062 12.956C49.654 12.572 49.45 12.068 49.45 11.444C49.45 10.808 49.654 10.292 50.062 9.896C50.482 9.5 51.1 9.302 51.916 9.302C52.456 9.302 53.32 9.482 54.508 9.842C55.756 10.214 56.686 10.4 57.298 10.4C58.306 10.4 58.972 10.04 59.296 9.32L59.998 9.806C59.734 11.534 58.81 12.398 57.226 12.398ZM51.232 11.984C51.232 12.284 51.49 12.434 52.006 12.434C52.522 12.434 53.152 12.242 53.896 11.858C52.84 11.594 52.114 11.462 51.718 11.462C51.586 11.462 51.472 11.516 51.376 11.624C51.28 11.72 51.232 11.84 51.232 11.984ZM56.146 13.316L55.858 15.242H58.54C58.648 15.494 58.702 15.74 58.702 15.98C58.702 16.22 58.588 16.424 58.36 16.592C58.132 16.748 57.844 16.826 57.496 16.826H55.606L55.588 16.988C57.1 17.708 57.856 18.776 57.856 20.192C57.856 21.26 57.574 22.016 57.01 22.46C56.446 22.892 55.78 23.108 55.012 23.108C54.244 23.108 53.65 22.916 53.23 22.532C52.81 22.136 52.6 21.614 52.6 20.966C52.6 20.858 52.612 20.72 52.636 20.552L53.122 16.826H51.43C51.502 16.142 51.562 15.614 51.61 15.242H53.338L53.536 13.658C54.16 13.358 54.682 13.208 55.102 13.208C55.522 13.208 55.87 13.244 56.146 13.316ZM55.57 21.47C55.858 21.47 56.11 21.368 56.326 21.164C56.542 20.948 56.65 20.612 56.65 20.156C56.65 19.256 56.242 18.566 55.426 18.086C55.234 19.418 55.132 20.252 55.12 20.588C55.12 20.912 55.162 21.14 55.246 21.272C55.342 21.404 55.45 21.47 55.57 21.47ZM63.4155 14.342C64.5195 14.342 65.4375 14.696 66.1695 15.404C66.9135 16.112 67.2855 16.976 67.2855 17.996C67.2855 19.544 66.8295 20.786 65.9175 21.722C65.0175 22.646 63.9255 23.108 62.6415 23.108C61.3575 23.108 60.3375 22.742 59.5815 22.01C58.8375 21.278 58.4655 20.372 58.4655 19.292C58.4655 17.78 58.9275 16.58 59.8515 15.692C60.7875 14.792 61.9755 14.342 63.4155 14.342ZM63.0555 15.8C62.4915 15.8 62.0175 16.124 61.6335 16.772C61.2495 17.42 61.0395 18.236 61.0035 19.22C61.0035 19.916 61.1415 20.492 61.4175 20.948C61.7055 21.404 62.1375 21.632 62.7135 21.632C63.2895 21.632 63.7695 21.314 64.1535 20.678C64.5495 20.042 64.7475 19.316 64.7475 18.5C64.7475 17.684 64.6095 17.036 64.3335 16.556C64.0575 16.052 63.6315 15.8 63.0555 15.8ZM73.361 16.7C73.361 16.172 73.115 15.908 72.623 15.908C72.143 15.908 71.759 16.22 71.471 16.844C72.767 17.864 73.415 19.01 73.415 20.282C73.415 21.206 73.157 21.908 72.641 22.388C72.125 22.868 71.477 23.108 70.697 23.108C69.917 23.108 69.347 22.868 68.987 22.388C68.627 21.896 68.447 21.278 68.447 20.534C68.447 20.306 68.453 20.138 68.465 20.03L69.095 14.54C69.527 14.408 69.965 14.342 70.409 14.342C71.141 14.342 71.507 14.612 71.507 15.152V15.188C71.987 14.624 72.599 14.342 73.343 14.342C73.883 14.342 74.303 14.468 74.603 14.72C74.903 14.96 75.053 15.284 75.053 15.692C75.053 16.1 74.897 16.436 74.585 16.7C74.285 16.952 73.889 17.078 73.397 17.078C73.373 17.078 73.349 17.078 73.325 17.078C73.349 16.946 73.361 16.82 73.361 16.7ZM72.245 20.192C72.245 19.496 71.885 18.8 71.165 18.104C70.949 19.832 70.841 20.702 70.841 20.714C70.841 21.218 71.045 21.47 71.453 21.47C71.981 21.47 72.245 21.044 72.245 20.192ZM83.623 16.52C83.623 17.768 82.879 18.722 81.391 19.382C81.427 19.598 81.481 19.856 81.553 20.156C81.769 21.044 82.129 21.5 82.633 21.524C82.669 21.524 82.705 21.524 82.741 21.524C83.701 21.524 84.415 20.678 84.883 18.986C85.135 19.214 85.375 19.556 85.603 20.012C85.435 20.66 85.195 21.206 84.883 21.65C84.583 22.094 84.253 22.412 83.893 22.604C83.257 22.94 82.657 23.108 82.093 23.108C80.773 23.108 79.849 22.37 79.321 20.894C79.117 20.306 78.979 19.706 78.907 19.094C79.591 18.926 80.131 18.65 80.527 18.266C80.923 17.87 81.121 17.45 81.121 17.006C81.121 16.238 80.737 15.854 79.969 15.854C79.549 15.854 79.189 16.016 78.889 16.34C78.589 16.652 78.391 17.03 78.295 17.474C78.223 18.086 78.103 19.052 77.935 20.372C77.779 21.68 77.677 22.556 77.629 23H75.235C76.099 15.644 76.621 11.126 76.801 9.446C77.053 9.35 77.395 9.302 77.827 9.302C78.763 9.302 79.231 9.578 79.231 10.13V10.238C78.991 12.41 78.769 14.072 78.565 15.224C79.225 14.612 80.053 14.306 81.049 14.306C81.793 14.306 82.405 14.498 82.885 14.882C83.377 15.266 83.623 15.812 83.623 16.52ZM54.94 48.108C53.08 48.108 51.712 47.634 50.836 46.686C49.972 45.738 49.54 44.49 49.54 42.942C49.54 41.382 49.804 39.966 50.332 38.694C50.872 37.41 51.67 36.36 52.726 35.544C53.782 34.716 54.922 34.302 56.146 34.302C57.382 34.302 58.348 34.602 59.044 35.202C59.752 35.79 60.106 36.588 60.106 37.596C60.106 38.592 59.794 39.42 59.17 40.08C58.558 40.74 57.838 41.07 57.01 41.07C56.182 41.07 55.54 40.89 55.084 40.53C54.628 40.158 54.4 39.768 54.4 39.36C54.4 38.94 54.562 38.616 54.886 38.388C55.222 38.148 55.708 38.028 56.344 38.028C56.188 38.184 56.11 38.394 56.11 38.658C56.11 38.91 56.188 39.132 56.344 39.324C56.5 39.516 56.74 39.612 57.064 39.612C57.388 39.612 57.712 39.444 58.036 39.108C58.36 38.76 58.522 38.304 58.522 37.74C58.522 37.176 58.348 36.726 58 36.39C57.664 36.054 57.184 35.886 56.56 35.886C55.744 35.886 55 36.216 54.328 36.876C53.668 37.536 53.164 38.376 52.816 39.396C52.468 40.416 52.294 41.49 52.294 42.618C52.294 43.59 52.504 44.448 52.924 45.192C53.14 45.576 53.458 45.882 53.878 46.11C54.31 46.338 54.814 46.452 55.39 46.452C56.374 46.452 57.322 46.14 58.234 45.516C59.146 44.88 59.914 44.064 60.538 43.068L61.15 44.166C60.442 45.318 59.554 46.266 58.486 47.01C57.418 47.742 56.236 48.108 54.94 48.108ZM67.9575 48.09C66.8535 48.09 66.1215 47.706 65.7615 46.938C65.1375 47.718 64.3335 48.108 63.3495 48.108C62.3775 48.108 61.5555 47.778 60.8835 47.118C60.2235 46.458 59.8935 45.588 59.8935 44.508C59.8935 42.936 60.3555 41.682 61.2795 40.746C62.2035 39.81 63.3735 39.342 64.7895 39.342C64.8255 39.342 64.8615 39.342 64.8975 39.342C65.4975 39.342 66.0495 39.444 66.5535 39.648C66.8775 39.444 67.2675 39.342 67.7235 39.342C68.1915 39.342 68.5275 39.402 68.7315 39.522C68.6235 40.41 68.5095 41.286 68.3895 42.15C68.2695 43.002 68.1855 43.608 68.1375 43.968C68.0295 44.784 67.9755 45.372 67.9755 45.732C67.9755 46.212 68.1675 46.452 68.5515 46.452C68.8515 46.452 69.1695 46.254 69.5055 45.858C69.8415 45.45 70.1355 44.814 70.3875 43.95C70.7355 44.262 70.9755 44.61 71.1075 44.994C70.7595 46.134 70.2915 46.938 69.7035 47.406C69.1155 47.862 68.5335 48.09 67.9575 48.09ZM65.0595 40.746C64.2915 40.746 63.6795 41.04 63.2235 41.628C62.7795 42.204 62.5155 43.068 62.4315 44.22C62.4195 44.328 62.4135 44.43 62.4135 44.526C62.4135 45.114 62.5515 45.582 62.8275 45.93C63.1155 46.278 63.4815 46.452 63.9255 46.452C64.6815 46.452 65.2515 45.918 65.6355 44.85L66.0675 40.962C65.7195 40.818 65.3835 40.746 65.0595 40.746ZM77.3328 42.492C78.2808 43.188 78.7548 44.01 78.7548 44.958C78.7548 45.906 78.3828 46.668 77.6388 47.244C76.8948 47.82 75.9588 48.108 74.8308 48.108C74.0988 48.108 73.4868 47.928 72.9948 47.568C72.5148 47.196 72.2748 46.74 72.2748 46.2C72.2748 45.66 72.4548 45.234 72.8148 44.922C73.1748 44.598 73.6248 44.4 74.1648 44.328C73.9128 44.688 73.7868 45.036 73.7868 45.372C73.7868 45.696 73.9008 45.96 74.1288 46.164C74.3568 46.368 74.6448 46.47 74.9928 46.47C75.3408 46.47 75.6288 46.344 75.8568 46.092C76.0848 45.828 76.1988 45.528 76.1988 45.192C76.1988 44.64 75.9408 44.148 75.4248 43.716C75.1128 43.464 74.7768 43.23 74.4168 43.014C74.0568 42.786 73.8648 42.666 73.8408 42.654C73.7928 42.618 73.7448 42.588 73.6968 42.564C73.4808 42.816 73.1688 43.164 72.7608 43.608C72.3528 44.04 72.0288 44.388 71.7888 44.652C71.1168 45.384 70.7388 45.996 70.6548 46.488C70.6308 46.584 70.6188 46.77 70.6188 47.046C70.6188 47.31 70.6968 47.586 70.8528 47.874C71.0208 48.162 71.2188 48.378 71.4468 48.522C71.6748 48.666 71.8968 48.78 72.1128 48.864C72.3408 48.96 72.5328 49.026 72.6888 49.062C72.8568 49.098 72.9408 49.122 72.9408 49.134C72.9408 49.218 72.8088 49.314 72.5448 49.422C72.0528 49.602 71.5368 49.692 70.9968 49.692C70.4688 49.692 69.9528 49.5 69.4488 49.116C68.7648 48.588 68.4228 47.886 68.4228 47.01C68.4228 46.47 68.5608 45.936 68.8368 45.408C69.3288 44.472 70.4808 43.188 72.2928 41.556C71.8488 41.112 71.6268 40.638 71.6268 40.134C71.6268 39.63 71.8128 39.204 72.1848 38.856C72.5688 38.508 73.0188 38.334 73.5348 38.334C74.0028 38.334 74.4108 38.52 74.7588 38.892C74.9868 39.144 75.1008 39.462 75.1008 39.846C75.1008 40.23 74.9748 40.662 74.7228 41.142C76.0068 41.718 76.8768 42.168 77.3328 42.492ZM73.4268 40.458C73.7148 40.158 73.8588 39.942 73.8588 39.81C73.8588 39.51 73.7268 39.348 73.4628 39.324C73.1628 39.324 73.0128 39.492 73.0128 39.828C73.0128 40.032 73.1508 40.242 73.4268 40.458ZM83.1405 35.472C83.1405 35.544 82.9785 36.834 82.6545 39.342H85.3005V40.728H82.4745L82.4205 41.178C83.8245 42.354 84.5265 43.638 84.5265 45.03C84.5265 46.122 84.2445 46.908 83.6805 47.388C83.1285 47.868 82.4625 48.108 81.6825 48.108C80.9025 48.108 80.3325 47.904 79.9725 47.496C79.6125 47.076 79.4325 46.572 79.4325 45.984C79.4325 45.852 79.4445 45.708 79.4685 45.552L80.0265 40.764L79.9545 40.728H78.4965C78.4845 40.608 78.4785 40.416 78.4785 40.152C78.4785 39.876 78.5325 39.606 78.6405 39.342H80.1885L80.7645 34.446C81.0165 34.35 81.3525 34.302 81.7725 34.302C82.6845 34.302 83.1405 34.692 83.1405 35.472ZM83.3205 45.012C83.3205 44.184 82.9605 43.368 82.2405 42.564C82.0245 44.352 81.9165 45.384 81.9165 45.66C81.9165 46.2 82.0905 46.47 82.4385 46.47C82.6905 46.47 82.9005 46.356 83.0685 46.128C83.2365 45.888 83.3205 45.516 83.3205 45.012ZM88.608 43.968C89.352 43.812 89.904 43.512 90.264 43.068C90.636 42.624 90.822 42.198 90.822 41.79C90.822 41.37 90.708 41.088 90.48 40.944C90.264 40.788 90.024 40.71 89.76 40.71C89.196 40.71 88.698 41.028 88.266 41.664C87.846 42.288 87.636 43.038 87.636 43.914C87.636 44.778 87.84 45.426 88.248 45.858C88.668 46.278 89.184 46.488 89.796 46.488C90.696 46.488 91.56 46.176 92.388 45.552C93.216 44.928 93.888 44.112 94.404 43.104C94.668 43.356 94.908 43.668 95.124 44.04C94.728 44.94 94.026 45.822 93.018 46.686C92.514 47.106 91.914 47.448 91.218 47.712C90.534 47.976 89.826 48.108 89.094 48.108C87.894 48.108 86.946 47.742 86.25 47.01C85.506 46.218 85.134 45.204 85.134 43.968C85.134 42.732 85.596 41.652 86.52 40.728C87.456 39.804 88.572 39.342 89.868 39.342C90.792 39.342 91.542 39.546 92.118 39.954C92.694 40.35 92.988 40.89 93 41.574C93 42.498 92.628 43.248 91.884 43.824C91.152 44.4 90.144 44.802 88.86 45.03L88.608 43.968ZM100.521 35.022C100.605 34.818 100.791 34.65 101.079 34.518C101.379 34.374 101.733 34.302 102.141 34.302C102.561 34.302 102.873 34.362 103.077 34.482C102.957 35.418 102.765 36.888 102.501 38.892C101.949 43.08 101.673 45.39 101.673 45.822C101.673 46.242 101.853 46.452 102.213 46.452C102.525 46.452 102.849 46.26 103.185 45.876C103.521 45.48 103.827 44.838 104.103 43.95C104.439 44.274 104.673 44.628 104.805 45.012C104.373 46.44 103.695 47.364 102.771 47.784C102.351 47.988 101.955 48.09 101.583 48.09C100.515 48.09 99.8008 47.706 99.4408 46.938C98.8168 47.718 98.0188 48.108 97.0468 48.108C96.0748 48.108 95.2528 47.778 94.5808 47.118C93.9208 46.458 93.5908 45.588 93.5908 44.508C93.5908 42.936 94.0528 41.682 94.9768 40.746C95.9008 39.81 97.0708 39.342 98.4868 39.342C98.5228 39.342 98.5588 39.342 98.5948 39.342C99.0868 39.342 99.5488 39.414 99.9808 39.558L100.521 35.022ZM98.7568 40.746C97.9888 40.746 97.3768 41.04 96.9208 41.628C96.4768 42.204 96.2128 43.068 96.1288 44.22C96.1168 44.328 96.1108 44.43 96.1108 44.526C96.1108 45.114 96.2488 45.582 96.5248 45.93C96.8128 46.278 97.1788 46.452 97.6228 46.452C98.3788 46.452 98.9488 45.918 99.3328 44.85L99.8008 40.98C99.4048 40.824 99.0568 40.746 98.7568 40.746Z" fill="#FF6432"/>
</svg>
