<svg width="68" height="69" viewBox="0 0 68 69" fill="none" xmlns="http://www.w3.org/2000/svg">
<path d="M1.00011 36C-1.15657 13 17.216 2.40431 36.0053 1C34.433 5.43432 34.5991 7.80047 39.5053 11.5C36.9273 23.622 43.5 31.5 56.0053 28C59.4155 33.6059 61.9089 33.1568 66.5053 31.5C67.2007 45.0238 61.5 55.5 53.5 62C41.5 70 28 69 17.5053 63.5C7.66825 58.3446 2.50011 52 1.00011 36Z" fill="#FCBA7F" stroke="black"/>
<circle cx="16.5" cy="30.5" r="5" fill="#B77748"/>
<circle cx="16.5" cy="30.5" r="5" fill="#B77748"/>
<circle cx="16.5" cy="30.5" r="5" stroke="black"/>
<circle cx="42" cy="48" r="4.5" fill="#B77748"/>
<circle cx="42" cy="48" r="4.5" fill="#B77748"/>
<circle cx="42" cy="48" r="4.5" stroke="black"/>
<circle cx="20" cy="47" r="3.5" fill="#B77748"/>
<circle cx="20" cy="47" r="3.5" fill="#B77748"/>
<circle cx="20" cy="47" r="3.5" stroke="black"/>
<circle cx="27" cy="20" r="2.5" fill="#B77748"/>
<circle cx="27" cy="20" r="2.5" fill="#B77748"/>
<circle cx="27" cy="20" r="2.5" stroke="black"/>
<circle cx="32" cy="35" r="2.5" fill="#B77748"/>
<circle cx="32" cy="35" r="2.5" fill="#B77748"/>
<circle cx="32" cy="35" r="2.5" stroke="black"/>
<circle cx="65.5" cy="19.5" r="2" fill="#B77748"/>
<circle cx="65.5" cy="19.5" r="2" fill="#B77748"/>
<circle cx="65.5" cy="19.5" r="2" stroke="black"/>
<circle cx="55" cy="4" r="3.5" fill="#B77748"/>
<circle cx="55" cy="4" r="3.5" fill="#B77748"/>
<circle cx="55" cy="4" r="3.5" stroke="black"/>
<circle cx="52" cy="15" r="2.5" fill="#B77748"/>
<circle cx="52" cy="15" r="2.5" fill="#B77748"/>
<circle cx="52" cy="15" r="2.5" stroke="black"/>
<path d="M33.5 63C43.2514 62.1922 48.0194 60.2151 55 53.5M58 49.5C59.4781 48.102 60.1359 47.1957 60.5 45M61.5 42C62.3364 40.8503 62.435 40.0269 62.5 38.5" stroke="black"/>
</svg>
